<?xml version="1.0" encoding="UTF-8" standalone="no"?>

<svg
   width="208.72098mm"
   height="208.72099mm"
   viewBox="0 0 208.72098 208.72099"
   version="1.1"
   id="svg1"
   xml:space="preserve"
   xmlns="http://www.w3.org/2000/svg"
   xmlns:svg="http://www.w3.org/2000/svg"><defs
     id="defs1" /><g
     id="g1"
     transform="matrix(0.26458333,0,0,0.26458334,4.9379573e-6,0)"><g
       id="group-R5"><path
         id="path2"
         d="m 2962.08,481.301 c -222.23,0 -437.55,29.488 -642.44,84.461 V 3797.39 c 1.54,24.57 15.38,199.86 104.67,365.69 68.75,127.69 163.93,215.68 287.77,265.41 V 1745.65 h 1.26 V 1604.78 H 5034.63 C 4593.28,928.418 3829.95,481.301 2962.08,481.301 Z M 488.953,2954.44 c 0,550.23 179.789,1058.43 483.692,1469.25 -37.254,-137.83 -56.918,-276.71 -56.918,-411.92 V 1565.33 C 646.414,1961.3 488.953,2439.46 488.953,2954.44 Z M 4749.58,2549.67 c 230.82,343.49 350.61,788.96 356.02,1324.02 1.14,112.21 -12.34,244.8 -43.82,387.82 236.59,-379.25 373.44,-827.15 373.44,-1307.07 0,-298.53 -52.9,-584.7 -149.83,-849.66 h -976.03 c 174.12,119.67 321.69,268.51 440.22,444.89 z M 3672.47,3866.01 c 0,-215.59 -34.57,-385.63 -102.75,-505.4 -48.54,-85.27 -137.23,-194.3 -357.64,-225.69 v 1321.82 c 241.86,-49.65 460.39,-202.05 460.39,-590.73 z M 1973.41,4379.88 C 1832.56,4106.5 1820.65,3840.5 1819.76,3811.07 l -0.12,-3.8 V 760.59 C 1676.16,835.461 1540.96,924 1415.73,1024.47 v 2987.3 c 0,301.04 151.27,648.36 394.77,906.42 210.96,223.56 590.9,490.07 1202.87,490.07 454.24,0 831.94,-148.88 1122.61,-442.51 328.67,-332.01 472.71,-785.18 469.65,-1087 -4.41,-435.78 -95.61,-789.12 -271.05,-1050.2 -225.29,-335.25 -602.26,-527.25 -1122.5,-572.47 v 375.89 c 446.87,39.79 676.6,278.27 792.16,481.27 113.2,198.85 168.23,445.09 168.23,752.77 0,333.75 -111.32,614.7 -321.91,812.47 -208.16,195.49 -504.54,298.82 -857.1,298.82 -254.97,0 -477.66,-62.92 -661.89,-186.99 -149.08,-100.4 -269.58,-238.49 -358.16,-410.43 z m 984.85,1536.64 C 1324.46,5916.52 0,4592.06 0,2958.26 0,1324.46 1324.46,0 2958.26,0 c 1633.8,0 2958.26,1324.46 2958.26,2958.26 0,1633.8 -1324.46,2958.26 -2958.26,2958.26"
         style="fill-rule:nonzero;stroke:none"
         transform="matrix(0.13333333,0,0,-0.13333333,0,788.86667)" /></g></g></svg>
